<svg width="184" height="23" viewBox="0 0 184 23" fill="none" xmlns="http://www.w3.org/2000/svg">
<path d="M10.56 7.4C10.3067 6.93333 9.94 6.58 9.46 6.34C8.99333 6.08667 8.44 5.96 7.8 5.96C6.69333 5.96 5.80667 6.32667 5.14 7.06C4.47333 7.78 4.14 8.74667 4.14 9.96C4.14 11.2533 4.48667 12.2667 5.18 13C5.88667 13.72 6.85333 14.08 8.08 14.08C8.92 14.08 9.62667 13.8667 10.2 13.44C10.7867 13.0133 11.2133 12.4 11.48 11.6H7.14V9.08H14.58V12.26C14.3267 13.1133 13.8933 13.9067 13.28 14.64C12.68 15.3733 11.9133 15.9667 10.98 16.42C10.0467 16.8733 8.99333 17.1 7.82 17.1C6.43333 17.1 5.19333 16.8 4.1 16.2C3.02 15.5867 2.17333 14.74 1.56 13.66C0.96 12.58 0.66 11.3467 0.66 9.96C0.66 8.57333 0.96 7.34 1.56 6.26C2.17333 5.16667 3.02 4.32 4.1 3.72C5.18 3.10667 6.41333 2.8 7.8 2.8C9.48 2.8 10.8933 3.20667 12.04 4.02C13.2 4.83333 13.9667 5.96 14.34 7.4H10.56ZM19.8944 7.7C20.2944 7.08667 20.7944 6.60667 21.3944 6.26C21.9944 5.9 22.661 5.72 23.3944 5.72V9.34H22.4544C21.601 9.34 20.961 9.52667 20.5344 9.9C20.1077 10.26 19.8944 10.9 19.8944 11.82V17H16.4744V5.84H19.8944V7.7ZM35.5491 11.24C35.5491 11.56 35.5291 11.8933 35.4891 12.24H27.7491C27.8024 12.9333 28.0224 13.4667 28.4091 13.84C28.8091 14.2 29.2957 14.38 29.8691 14.38C30.7224 14.38 31.3157 14.02 31.6491 13.3H35.2891C35.1024 14.0333 34.7624 14.6933 34.2691 15.28C33.7891 15.8667 33.1824 16.3267 32.4491 16.66C31.7157 16.9933 30.8957 17.16 29.9891 17.16C28.8957 17.16 27.9224 16.9267 27.0691 16.46C26.2157 15.9933 25.5491 15.3267 25.0691 14.46C24.5891 13.5933 24.3491 12.58 24.3491 11.42C24.3491 10.26 24.5824 9.24667 25.0491 8.38C25.5291 7.51333 26.1957 6.84667 27.0491 6.38C27.9024 5.91333 28.8824 5.68 29.9891 5.68C31.0691 5.68 32.0291 5.90667 32.8691 6.36C33.7091 6.81333 34.3624 7.46 34.8291 8.3C35.3091 9.14 35.5491 10.12 35.5491 11.24ZM32.0491 10.34C32.0491 9.75333 31.8491 9.28667 31.4491 8.94C31.0491 8.59333 30.5491 8.42 29.9491 8.42C29.3757 8.42 28.8891 8.58667 28.4891 8.92C28.1024 9.25333 27.8624 9.72667 27.7691 10.34H32.0491ZM47.8733 11.24C47.8733 11.56 47.8533 11.8933 47.8133 12.24H40.0733C40.1266 12.9333 40.3466 13.4667 40.7333 13.84C41.1333 14.2 41.6199 14.38 42.1933 14.38C43.0466 14.38 43.6399 14.02 43.9733 13.3H47.6133C47.4266 14.0333 47.0866 14.6933 46.5933 15.28C46.1133 15.8667 45.5066 16.3267 44.7733 16.66C44.0399 16.9933 43.2199 17.16 42.3133 17.16C41.2199 17.16 40.2466 16.9267 39.3933 16.46C38.5399 15.9933 37.8733 15.3267 37.3933 14.46C36.9133 13.5933 36.6733 12.58 36.6733 11.42C36.6733 10.26 36.9066 9.24667 37.3733 8.38C37.8533 7.51333 38.5199 6.84667 39.3733 6.38C40.2266 5.91333 41.2066 5.68 42.3133 5.68C43.3933 5.68 44.3533 5.90667 45.1933 6.36C46.0333 6.81333 46.6866 7.46 47.1533 8.3C47.6333 9.14 47.8733 10.12 47.8733 11.24ZM44.3733 10.34C44.3733 9.75333 44.1733 9.28667 43.7733 8.94C43.3733 8.59333 42.8733 8.42 42.2733 8.42C41.6999 8.42 41.2133 8.58667 40.8133 8.92C40.4266 9.25333 40.1866 9.72667 40.0933 10.34H44.3733ZM56.4775 5.72C57.7842 5.72 58.8242 6.14667 59.5975 7C60.3842 7.84 60.7775 9 60.7775 10.48V17H57.3775V10.94C57.3775 10.1933 57.1842 9.61333 56.7975 9.2C56.4108 8.78667 55.8908 8.58 55.2375 8.58C54.5842 8.58 54.0642 8.78667 53.6775 9.2C53.2908 9.61333 53.0975 10.1933 53.0975 10.94V17H49.6775V5.84H53.0975V7.32C53.4442 6.82667 53.9108 6.44 54.4975 6.16C55.0842 5.86667 55.7442 5.72 56.4775 5.72ZM76.5323 2.96V5.7H70.8123V8.66H75.0923V11.32H70.8123V17H67.3923V2.96H76.5323ZM81.7498 2.2V17H78.3298V2.2H81.7498ZM85.9483 4.68C85.3483 4.68 84.8549 4.50667 84.4683 4.16C84.0949 3.8 83.9083 3.36 83.9083 2.84C83.9083 2.30667 84.0949 1.86667 84.4683 1.52C84.8549 1.16 85.3483 0.979999 85.9483 0.979999C86.5349 0.979999 87.0149 1.16 87.3883 1.52C87.7749 1.86667 87.9683 2.30667 87.9683 2.84C87.9683 3.36 87.7749 3.8 87.3883 4.16C87.0149 4.50667 86.5349 4.68 85.9483 4.68ZM87.6483 5.84V17H84.2283V5.84H87.6483ZM94.3667 5.68C95.1534 5.68 95.8401 5.84 96.4267 6.16C97.0267 6.48 97.4867 6.9 97.8067 7.42V5.84H101.227V16.98C101.227 18.0067 101.02 18.9333 100.607 19.76C100.207 20.6 99.5867 21.2667 98.7467 21.76C97.9201 22.2533 96.8867 22.5 95.6467 22.5C93.9934 22.5 92.6534 22.1067 91.6267 21.32C90.6001 20.5467 90.0134 19.4933 89.8667 18.16H93.2467C93.3534 18.5867 93.6067 18.92 94.0067 19.16C94.4067 19.4133 94.9001 19.54 95.4867 19.54C96.1934 19.54 96.7534 19.3333 97.1667 18.92C97.5934 18.52 97.8067 17.8733 97.8067 16.98V15.4C97.4734 15.92 97.0134 16.3467 96.4267 16.68C95.8401 17 95.1534 17.16 94.3667 17.16C93.4467 17.16 92.6134 16.9267 91.8667 16.46C91.1201 15.98 90.5267 15.3067 90.0867 14.44C89.6601 13.56 89.4467 12.5467 89.4467 11.4C89.4467 10.2533 89.6601 9.24667 90.0867 8.38C90.5267 7.51333 91.1201 6.84667 91.8667 6.38C92.6134 5.91333 93.4467 5.68 94.3667 5.68ZM97.8067 11.42C97.8067 10.5667 97.5667 9.89333 97.0867 9.4C96.6201 8.90667 96.0467 8.66 95.3667 8.66C94.6867 8.66 94.1067 8.90667 93.6267 9.4C93.1601 9.88 92.9267 10.5467 92.9267 11.4C92.9267 12.2533 93.1601 12.9333 93.6267 13.44C94.1067 13.9333 94.6867 14.18 95.3667 14.18C96.0467 14.18 96.6201 13.9333 97.0867 13.44C97.5667 12.9467 97.8067 12.2733 97.8067 11.42ZM110.561 5.72C111.841 5.72 112.868 6.14667 113.641 7C114.414 7.84 114.801 9 114.801 10.48V17H111.401V10.94C111.401 10.1933 111.208 9.61333 110.821 9.2C110.434 8.78667 109.914 8.58 109.261 8.58C108.608 8.58 108.088 8.78667 107.701 9.2C107.314 9.61333 107.121 10.1933 107.121 10.94V17H103.701V2.2H107.121V7.34C107.468 6.84667 107.941 6.45333 108.541 6.16C109.141 5.86667 109.814 5.72 110.561 5.72ZM123.398 14.1V17H121.658C120.418 17 119.451 16.7 118.758 16.1C118.064 15.4867 117.718 14.4933 117.718 13.12V8.68H116.358V5.84H117.718V3.12H121.138V5.84H123.378V8.68H121.138V13.16C121.138 13.4933 121.218 13.7333 121.378 13.88C121.538 14.0267 121.804 14.1 122.178 14.1H123.398ZM128.961 9.96C128.961 8.57333 129.261 7.34 129.861 6.26C130.461 5.16667 131.294 4.32 132.361 3.72C133.441 3.10667 134.661 2.8 136.021 2.8C137.687 2.8 139.114 3.24 140.301 4.12C141.487 5 142.281 6.2 142.681 7.72H138.921C138.641 7.13333 138.241 6.68667 137.721 6.38C137.214 6.07333 136.634 5.92 135.981 5.92C134.927 5.92 134.074 6.28667 133.421 7.02C132.767 7.75333 132.441 8.73333 132.441 9.96C132.441 11.1867 132.767 12.1667 133.421 12.9C134.074 13.6333 134.927 14 135.981 14C136.634 14 137.214 13.8467 137.721 13.54C138.241 13.2333 138.641 12.7867 138.921 12.2H142.681C142.281 13.72 141.487 14.92 140.301 15.8C139.114 16.6667 137.687 17.1 136.021 17.1C134.661 17.1 133.441 16.8 132.361 16.2C131.294 15.5867 130.461 14.74 129.861 13.66C129.261 12.58 128.961 11.3467 128.961 9.96ZM148.195 2.2V17H144.775V2.2H148.195ZM161.694 5.84V17H158.274V15.48C157.927 15.9733 157.454 16.3733 156.854 16.68C156.267 16.9733 155.614 17.12 154.894 17.12C154.04 17.12 153.287 16.9333 152.634 16.56C151.98 16.1733 151.474 15.62 151.114 14.9C150.754 14.18 150.574 13.3333 150.574 12.36V5.84H153.974V11.9C153.974 12.6467 154.167 13.2267 154.554 13.64C154.94 14.0533 155.46 14.26 156.114 14.26C156.78 14.26 157.307 14.0533 157.694 13.64C158.08 13.2267 158.274 12.6467 158.274 11.9V5.84H161.694ZM167.57 7.42C167.89 6.9 168.35 6.48 168.95 6.16C169.55 5.84 170.237 5.68 171.01 5.68C171.93 5.68 172.763 5.91333 173.51 6.38C174.257 6.84667 174.843 7.51333 175.27 8.38C175.71 9.24667 175.93 10.2533 175.93 11.4C175.93 12.5467 175.71 13.56 175.27 14.44C174.843 15.3067 174.257 15.98 173.51 16.46C172.763 16.9267 171.93 17.16 171.01 17.16C170.223 17.16 169.537 17.0067 168.95 16.7C168.363 16.38 167.903 15.96 167.57 15.44V17H164.15V2.2H167.57V7.42ZM172.45 11.4C172.45 10.5467 172.21 9.88 171.73 9.4C171.263 8.90667 170.683 8.66 169.99 8.66C169.31 8.66 168.73 8.90667 168.25 9.4C167.783 9.89333 167.55 10.5667 167.55 11.42C167.55 12.2733 167.783 12.9467 168.25 13.44C168.73 13.9333 169.31 14.18 169.99 14.18C170.67 14.18 171.25 13.9333 171.73 13.44C172.21 12.9333 172.45 12.2533 172.45 11.4ZM180.744 17.24C179.844 17.24 179.104 16.98 178.524 16.46C177.964 15.92 177.684 15.26 177.684 14.48C177.684 13.68 177.964 13.01 178.524 12.47C179.104 11.93 179.844 11.66 180.744 11.66C181.624 11.66 182.344 11.93 182.904 12.47C183.484 13.01 183.774 13.68 183.774 14.48C183.774 15.26 183.484 15.92 182.904 16.46C182.344 16.98 181.624 17.24 180.744 17.24Z" fill="white"/>
</svg>
